<?xml version="1.0" encoding="UTF-8" standalone="no"?><svg xmlns="http://www.w3.org/2000/svg" xmlns:xlink="http://www.w3.org/1999/xlink" contentStyleType="text/css" height="342px" preserveAspectRatio="none" style="width:258px;height:342px;background:#FFFFFF;" version="1.1" viewBox="0 0 258 342" width="258px" zoomAndPan="magnify"><defs/><g><line style="stroke:#C0C0C0;stroke-width:1.0;" x1="0" x2="0" y1="0" y2="326.0469"/><line style="stroke:#C0C0C0;stroke-width:1.0;" x1="16" x2="16" y1="0" y2="326.0469"/><line style="stroke:#C0C0C0;stroke-width:1.0;" x1="32" x2="32" y1="0" y2="326.0469"/><line style="stroke:#C0C0C0;stroke-width:1.0;" x1="48" x2="48" y1="0" y2="326.0469"/><line style="stroke:#C0C0C0;stroke-width:1.0;" x1="64" x2="64" y1="0" y2="326.0469"/><line style="stroke:#C0C0C0;stroke-width:1.0;" x1="80" x2="80" y1="0" y2="326.0469"/><line style="stroke:#C0C0C0;stroke-width:1.0;" x1="96" x2="96" y1="0" y2="326.0469"/><line style="stroke:#C0C0C0;stroke-width:1.0;" x1="112" x2="112" y1="0" y2="326.0469"/><line style="stroke:#C0C0C0;stroke-width:1.0;" x1="128" x2="128" y1="0" y2="326.0469"/><line style="stroke:#C0C0C0;stroke-width:1.0;" x1="144" x2="144" y1="0" y2="326.0469"/><line style="stroke:#C0C0C0;stroke-width:1.0;" x1="160" x2="160" y1="0" y2="326.0469"/><line style="stroke:#C0C0C0;stroke-width:1.0;" x1="176" x2="176" y1="0" y2="326.0469"/><line style="stroke:#C0C0C0;stroke-width:1.0;" x1="192" x2="192" y1="0" y2="326.0469"/><line style="stroke:#C0C0C0;stroke-width:1.0;" x1="208" x2="208" y1="0" y2="326.0469"/><line style="stroke:#C0C0C0;stroke-width:1.0;" x1="224" x2="224" y1="0" y2="326.0469"/><line style="stroke:#C0C0C0;stroke-width:1.0;" x1="240" x2="240" y1="0" y2="326.0469"/><line style="stroke:#C0C0C0;stroke-width:1.0;" x1="256" x2="256" y1="0" y2="326.0469"/><text fill="#000000" font-family="Serif" font-size="10" lengthAdjust="spacing" textLength="5" x="5.5" y="8.9111">1</text><text fill="#000000" font-family="Serif" font-size="10" lengthAdjust="spacing" textLength="5" x="21.5" y="8.9111">2</text><text fill="#000000" font-family="Serif" font-size="10" lengthAdjust="spacing" textLength="5" x="37.5" y="8.9111">3</text><text fill="#000000" font-family="Serif" font-size="10" lengthAdjust="spacing" textLength="5" x="53.5" y="8.9111">4</text><text fill="#000000" font-family="Serif" font-size="10" lengthAdjust="spacing" textLength="5" x="69.5" y="8.9111">5</text><text fill="#000000" font-family="Serif" font-size="10" lengthAdjust="spacing" textLength="5" x="85.5" y="8.9111">6</text><text fill="#000000" font-family="Serif" font-size="10" lengthAdjust="spacing" textLength="5" x="101.5" y="8.9111">7</text><text fill="#000000" font-family="Serif" font-size="10" lengthAdjust="spacing" textLength="5" x="117.5" y="8.9111">8</text><text fill="#000000" font-family="Serif" font-size="10" lengthAdjust="spacing" textLength="5" x="133.5" y="8.9111">9</text><text fill="#000000" font-family="Serif" font-size="10" lengthAdjust="spacing" textLength="10" x="147" y="8.9111">10</text><text fill="#000000" font-family="Serif" font-size="10" lengthAdjust="spacing" textLength="10" x="163" y="8.9111">11</text><text fill="#000000" font-family="Serif" font-size="10" lengthAdjust="spacing" textLength="10" x="179" y="8.9111">12</text><text fill="#000000" font-family="Serif" font-size="10" lengthAdjust="spacing" textLength="10" x="195" y="8.9111">13</text><text fill="#000000" font-family="Serif" font-size="10" lengthAdjust="spacing" textLength="10" x="211" y="8.9111">14</text><text fill="#000000" font-family="Serif" font-size="10" lengthAdjust="spacing" textLength="10" x="227" y="8.9111">15</text><text fill="#000000" font-family="Serif" font-size="10" lengthAdjust="spacing" textLength="10" x="243" y="8.9111">16</text><line style="stroke:#C0C0C0;stroke-width:1.0;" x1="0" x2="256" y1="0" y2="0"/><line style="stroke:#C0C0C0;stroke-width:1.0;" x1="0" x2="256" y1="13" y2="13"/><line style="stroke:#181818;stroke-width:1.5;" x1="7" x2="7" y1="30.2891" y2="72.7227"/><line style="stroke:#181818;stroke-width:1.5;" x1="7" x2="15" y1="72.7227" y2="72.7227"/><polygon fill="#181818" points="11,68.7227,11,72.7227,11,76.7227,15,72.7227" style="stroke:#181818;stroke-width:1.5;"/><line style="stroke:#181818;stroke-width:1.5;" x1="39" x2="39" y1="78.8672" y2="121.3008"/><line style="stroke:#181818;stroke-width:1.5;" x1="39" x2="47" y1="121.3008" y2="121.3008"/><polygon fill="#181818" points="43,117.3008,43,121.3008,43,125.3008,47,121.3008" style="stroke:#181818;stroke-width:1.5;"/><line style="stroke:#181818;stroke-width:1.5;" x1="55" x2="55" y1="127.4453" y2="137.5898"/><line style="stroke:#181818;stroke-width:1.5;" x1="55" x2="63" y1="137.5898" y2="137.5898"/><polygon fill="#181818" points="59,133.5898,59,137.5898,59,141.5898,63,137.5898" style="stroke:#181818;stroke-width:1.5;"/><line style="stroke:#181818;stroke-width:1.5;" x1="71" x2="71" y1="143.7344" y2="153.8789"/><line style="stroke:#181818;stroke-width:1.5;" x1="71" x2="79" y1="153.8789" y2="153.8789"/><polygon fill="#181818" points="75,149.8789,75,153.8789,75,157.8789,79,153.8789" style="stroke:#181818;stroke-width:1.5;"/><line style="stroke:#181818;stroke-width:1.5;" x1="87" x2="87" y1="160.0234" y2="170.168"/><line style="stroke:#181818;stroke-width:1.5;" x1="87" x2="95" y1="170.168" y2="170.168"/><polygon fill="#181818" points="91,166.168,91,170.168,91,174.168,95,170.168" style="stroke:#181818;stroke-width:1.5;"/><line style="stroke:#181818;stroke-width:1.5;" x1="71" x2="71" y1="143.7344" y2="218.7461"/><line style="stroke:#181818;stroke-width:1.5;" x1="71" x2="79" y1="218.7461" y2="218.7461"/><polygon fill="#181818" points="75,214.7461,75,218.7461,75,222.7461,79,218.7461" style="stroke:#181818;stroke-width:1.5;"/><line style="stroke:#181818;stroke-width:1.5;" x1="39" x2="39" y1="78.8672" y2="267.3242"/><line style="stroke:#181818;stroke-width:1.5;" x1="39" x2="47" y1="267.3242" y2="267.3242"/><polygon fill="#181818" points="43,263.3242,43,267.3242,43,271.3242,47,267.3242" style="stroke:#181818;stroke-width:1.5;"/><line style="stroke:#181818;stroke-width:1.5;" x1="87" x2="87" y1="160.0234" y2="315.9023"/><line style="stroke:#181818;stroke-width:1.5;" x1="87" x2="95" y1="315.9023" y2="315.9023"/><polygon fill="#181818" points="91,311.9023,91,315.9023,91,319.9023,95,315.9023" style="stroke:#181818;stroke-width:1.5;"/><rect fill="#E6E6FA" height="12.2891" style="stroke:none;stroke-width:1.0;" width="12" x="2" y="18"/><line style="stroke:#ADD8E6;stroke-width:1.0;" x1="2" x2="14" y1="18" y2="18"/><line style="stroke:#ADD8E6;stroke-width:1.0;" x1="2" x2="14" y1="30.2891" y2="30.2891"/><line style="stroke:#ADD8E6;stroke-width:1.0;" x1="2" x2="2" y1="18" y2="30.2891"/><line style="stroke:#ADD8E6;stroke-width:1.0;" x1="14" x2="14" y1="18" y2="30.2891"/><line style="stroke:#181818;stroke-width:1.0;" x1="0" x2="5" y1="48.4336" y2="48.4336"/><line style="stroke:#181818;stroke-width:1.0;" x1="145" x2="255" y1="48.4336" y2="48.4336"/><rect fill="#FF7F50" height="12.2891" style="stroke:none;stroke-width:1.0;" width="28" x="18" y="66.5781"/><line style="stroke:#008000;stroke-width:1.0;" x1="18" x2="46" y1="66.5781" y2="66.5781"/><line style="stroke:#008000;stroke-width:1.0;" x1="18" x2="46" y1="78.8672" y2="78.8672"/><line style="stroke:#008000;stroke-width:1.0;" x1="18" x2="18" y1="66.5781" y2="78.8672"/><line style="stroke:#008000;stroke-width:1.0;" x1="46" x2="46" y1="66.5781" y2="78.8672"/><line style="stroke:#181818;stroke-width:1.0;" x1="0" x2="5" y1="97.0117" y2="97.0117"/><line style="stroke:#181818;stroke-width:1.0;" x1="130" x2="255" y1="97.0117" y2="97.0117"/><rect fill="#FF7F50" height="12.2891" style="stroke:none;stroke-width:1.0;" width="12" x="50" y="115.1563"/><line style="stroke:#008000;stroke-width:1.0;" x1="50" x2="62" y1="115.1563" y2="115.1563"/><line style="stroke:#008000;stroke-width:1.0;" x1="50" x2="62" y1="127.4453" y2="127.4453"/><line style="stroke:#008000;stroke-width:1.0;" x1="50" x2="50" y1="115.1563" y2="127.4453"/><line style="stroke:#008000;stroke-width:1.0;" x1="62" x2="62" y1="115.1563" y2="127.4453"/><rect fill="#FF7F50" height="12.2891" style="stroke:none;stroke-width:1.0;" width="12" x="66" y="131.4453"/><line style="stroke:#008000;stroke-width:1.0;" x1="66" x2="78" y1="131.4453" y2="131.4453"/><line style="stroke:#008000;stroke-width:1.0;" x1="66" x2="78" y1="143.7344" y2="143.7344"/><line style="stroke:#008000;stroke-width:1.0;" x1="66" x2="66" y1="131.4453" y2="143.7344"/><line style="stroke:#008000;stroke-width:1.0;" x1="78" x2="78" y1="131.4453" y2="143.7344"/><rect fill="#FF7F50" height="12.2891" style="stroke:none;stroke-width:1.0;" width="12" x="82" y="147.7344"/><line style="stroke:#008000;stroke-width:1.0;" x1="82" x2="94" y1="147.7344" y2="147.7344"/><line style="stroke:#008000;stroke-width:1.0;" x1="82" x2="94" y1="160.0234" y2="160.0234"/><line style="stroke:#008000;stroke-width:1.0;" x1="82" x2="82" y1="147.7344" y2="160.0234"/><line style="stroke:#008000;stroke-width:1.0;" x1="94" x2="94" y1="147.7344" y2="160.0234"/><rect fill="#FF7F50" height="12.2891" style="stroke:none;stroke-width:1.0;" width="12" x="98" y="164.0234"/><line style="stroke:#008000;stroke-width:1.0;" x1="98" x2="110" y1="164.0234" y2="164.0234"/><line style="stroke:#008000;stroke-width:1.0;" x1="98" x2="110" y1="176.3125" y2="176.3125"/><line style="stroke:#008000;stroke-width:1.0;" x1="98" x2="98" y1="164.0234" y2="176.3125"/><line style="stroke:#008000;stroke-width:1.0;" x1="110" x2="110" y1="164.0234" y2="176.3125"/><line style="stroke:#181818;stroke-width:1.0;" x1="0" x2="5" y1="194.457" y2="194.457"/><line style="stroke:#181818;stroke-width:1.0;" x1="57" x2="255" y1="194.457" y2="194.457"/><rect fill="#FF7F50" height="12.2891" style="stroke:none;stroke-width:1.0;" width="172" x="82" y="212.6016"/><line style="stroke:#008000;stroke-width:1.0;" x1="82" x2="254" y1="212.6016" y2="212.6016"/><line style="stroke:#008000;stroke-width:1.0;" x1="82" x2="254" y1="224.8906" y2="224.8906"/><line style="stroke:#008000;stroke-width:1.0;" x1="82" x2="82" y1="212.6016" y2="224.8906"/><line style="stroke:#008000;stroke-width:1.0;" x1="254" x2="254" y1="212.6016" y2="224.8906"/><line style="stroke:#181818;stroke-width:1.0;" x1="0" x2="5" y1="243.0352" y2="243.0352"/><line style="stroke:#181818;stroke-width:1.0;" x1="70" x2="255" y1="243.0352" y2="243.0352"/><rect fill="#FF7F50" height="12.2891" style="stroke:none;stroke-width:1.0;" width="204" x="50" y="261.1797"/><line style="stroke:#008000;stroke-width:1.0;" x1="50" x2="254" y1="261.1797" y2="261.1797"/><line style="stroke:#008000;stroke-width:1.0;" x1="50" x2="254" y1="273.4688" y2="273.4688"/><line style="stroke:#008000;stroke-width:1.0;" x1="50" x2="50" y1="261.1797" y2="273.4688"/><line style="stroke:#008000;stroke-width:1.0;" x1="254" x2="254" y1="261.1797" y2="273.4688"/><line style="stroke:#181818;stroke-width:1.0;" x1="0" x2="5" y1="291.6133" y2="291.6133"/><line style="stroke:#181818;stroke-width:1.0;" x1="174" x2="255" y1="291.6133" y2="291.6133"/><rect fill="#FFFF00" height="12.2891" style="stroke:none;stroke-width:1.0;" width="156" x="98" y="309.7578"/><line style="stroke:#FFFF00;stroke-width:1.0;" x1="98" x2="254" y1="309.7578" y2="309.7578"/><line style="stroke:#FFFF00;stroke-width:1.0;" x1="98" x2="254" y1="322.0469" y2="322.0469"/><line style="stroke:#FFFF00;stroke-width:1.0;" x1="98" x2="98" y1="309.7578" y2="322.0469"/><line style="stroke:#FFFF00;stroke-width:1.0;" x1="254" x2="254" y1="309.7578" y2="322.0469"/><text fill="#000000" font-family="sans-serif" font-size="11" lengthAdjust="spacing" textLength="140" x="18" y="27.958">Project Management planning</text><text fill="#000000" font-family="sans-serif" font-size="11" font-weight="bold" lengthAdjust="spacing" text-decoration="underline" textLength="130" x="10" y="52.2471">Phase-1 Documentation</text><text fill="#000000" font-family="sans-serif" font-size="11" lengthAdjust="spacing" textLength="131" x="50" y="76.5361">Requirements Specification</text><text fill="#000000" font-family="sans-serif" font-size="11" font-weight="bold" lengthAdjust="spacing" text-decoration="underline" textLength="115" x="10" y="100.8252">Modeling and Design</text><text fill="#000000" font-family="sans-serif" font-size="11" lengthAdjust="spacing" textLength="89" x="66" y="125.1143">Use Case Diagram</text><text fill="#000000" font-family="sans-serif" font-size="11" lengthAdjust="spacing" textLength="60" x="82" y="141.4033">User Stories</text><text fill="#000000" font-family="sans-serif" font-size="11" lengthAdjust="spacing" textLength="53" x="98" y="157.6924">Data Model</text><text fill="#000000" font-family="sans-serif" font-size="11" lengthAdjust="spacing" textLength="56" x="114" y="173.9814">Wireframes</text><text fill="#000000" font-family="sans-serif" font-size="11" font-weight="bold" lengthAdjust="spacing" text-decoration="underline" textLength="42" x="10" y="198.2705">Testing</text><text fill="#000000" font-family="sans-serif" font-size="11" lengthAdjust="spacing" textLength="44" x="86" y="222.5596">Test Plan</text><text fill="#000000" font-family="sans-serif" font-size="11" font-weight="bold" lengthAdjust="spacing" text-decoration="underline" textLength="55" x="10" y="246.8486">Evaluation</text><text fill="#000000" font-family="sans-serif" font-size="11" lengthAdjust="spacing" textLength="85" x="54" y="271.1377">Project evaluation</text><text fill="#000000" font-family="sans-serif" font-size="11" font-weight="bold" lengthAdjust="spacing" text-decoration="underline" textLength="159" x="10" y="295.4268">Phase-2 App Implementation</text><text fill="#000000" font-family="sans-serif" font-size="11" lengthAdjust="spacing" textLength="62" x="102" y="319.7158">Development</text><line style="stroke:#C0C0C0;stroke-width:1.0;" x1="0" x2="0" y1="327.0469" y2="340.0469"/><line style="stroke:#C0C0C0;stroke-width:1.0;" x1="16" x2="16" y1="327.0469" y2="340.0469"/><line style="stroke:#C0C0C0;stroke-width:1.0;" x1="32" x2="32" y1="327.0469" y2="340.0469"/><line style="stroke:#C0C0C0;stroke-width:1.0;" x1="48" x2="48" y1="327.0469" y2="340.0469"/><line style="stroke:#C0C0C0;stroke-width:1.0;" x1="64" x2="64" y1="327.0469" y2="340.0469"/><line style="stroke:#C0C0C0;stroke-width:1.0;" x1="80" x2="80" y1="327.0469" y2="340.0469"/><line style="stroke:#C0C0C0;stroke-width:1.0;" x1="96" x2="96" y1="327.0469" y2="340.0469"/><line style="stroke:#C0C0C0;stroke-width:1.0;" x1="112" x2="112" y1="327.0469" y2="340.0469"/><line style="stroke:#C0C0C0;stroke-width:1.0;" x1="128" x2="128" y1="327.0469" y2="340.0469"/><line style="stroke:#C0C0C0;stroke-width:1.0;" x1="144" x2="144" y1="327.0469" y2="340.0469"/><line style="stroke:#C0C0C0;stroke-width:1.0;" x1="160" x2="160" y1="327.0469" y2="340.0469"/><line style="stroke:#C0C0C0;stroke-width:1.0;" x1="176" x2="176" y1="327.0469" y2="340.0469"/><line style="stroke:#C0C0C0;stroke-width:1.0;" x1="192" x2="192" y1="327.0469" y2="340.0469"/><line style="stroke:#C0C0C0;stroke-width:1.0;" x1="208" x2="208" y1="327.0469" y2="340.0469"/><line style="stroke:#C0C0C0;stroke-width:1.0;" x1="224" x2="224" y1="327.0469" y2="340.0469"/><line style="stroke:#C0C0C0;stroke-width:1.0;" x1="240" x2="240" y1="327.0469" y2="340.0469"/><line style="stroke:#C0C0C0;stroke-width:1.0;" x1="256" x2="256" y1="327.0469" y2="340.0469"/><text fill="#000000" font-family="Serif" font-size="10" lengthAdjust="spacing" textLength="5" x="5.5" y="335.958">1</text><text fill="#000000" font-family="Serif" font-size="10" lengthAdjust="spacing" textLength="5" x="21.5" y="335.958">2</text><text fill="#000000" font-family="Serif" font-size="10" lengthAdjust="spacing" textLength="5" x="37.5" y="335.958">3</text><text fill="#000000" font-family="Serif" font-size="10" lengthAdjust="spacing" textLength="5" x="53.5" y="335.958">4</text><text fill="#000000" font-family="Serif" font-size="10" lengthAdjust="spacing" textLength="5" x="69.5" y="335.958">5</text><text fill="#000000" font-family="Serif" font-size="10" lengthAdjust="spacing" textLength="5" x="85.5" y="335.958">6</text><text fill="#000000" font-family="Serif" font-size="10" lengthAdjust="spacing" textLength="5" x="101.5" y="335.958">7</text><text fill="#000000" font-family="Serif" font-size="10" lengthAdjust="spacing" textLength="5" x="117.5" y="335.958">8</text><text fill="#000000" font-family="Serif" font-size="10" lengthAdjust="spacing" textLength="5" x="133.5" y="335.958">9</text><text fill="#000000" font-family="Serif" font-size="10" lengthAdjust="spacing" textLength="10" x="147" y="335.958">10</text><text fill="#000000" font-family="Serif" font-size="10" lengthAdjust="spacing" textLength="10" x="163" y="335.958">11</text><text fill="#000000" font-family="Serif" font-size="10" lengthAdjust="spacing" textLength="10" x="179" y="335.958">12</text><text fill="#000000" font-family="Serif" font-size="10" lengthAdjust="spacing" textLength="10" x="195" y="335.958">13</text><text fill="#000000" font-family="Serif" font-size="10" lengthAdjust="spacing" textLength="10" x="211" y="335.958">14</text><text fill="#000000" font-family="Serif" font-size="10" lengthAdjust="spacing" textLength="10" x="227" y="335.958">15</text><text fill="#000000" font-family="Serif" font-size="10" lengthAdjust="spacing" textLength="10" x="243" y="335.958">16</text><line style="stroke:#C0C0C0;stroke-width:1.0;" x1="0" x2="256" y1="327.0469" y2="327.0469"/><!--MD5=[c1620023ba8fb8f50a27f95fbf37b828]
@startgantt
'https://plantuml.com/gantt-diagram

[Project Management planning] lasts 1 day and is colored in Lavender/LightBlue
- -__**Phase-1 Documentation**__  - -
[Requirements Specification] lasts 2 days and is colored in Coral/Green and starts 0 days after [Project Management planning]'s end

- -**__Modeling and Design__** - -

[Use Case Diagram] lasts 1 day and is colored in Coral/Green and starts 0 days after [Requirements Specification]'s end
[User Stories] lasts 1 day and is colored in Coral/Green and starts 0 days after [Use Case Diagram]'s end
[Data Model] lasts 1 day and is colored in Coral/Green and starts 0 days after [User Stories]'s end
[Wireframes] lasts 1 day and is colored in Coral/Green and starts 0 days after [Data Model]'s end
- -**__Testing__** - -
[Test Plan] lasts 11 day and is colored in Coral/Green and starts 0 days after [User Stories]'s end
- -**__Evaluation__** - -
[Project evaluation] lasts 13 day and is colored in Coral/Green and starts 0 days after [Requirements Specification]'s end

- -**__Phase-2 App Implementation__** - -
[Development] lasts 10 days and is colored in yellow and starts 0 days after [Data Model]'s end

@endgantt

@startgantt

[Project Management planning] lasts 1 day and is colored in Lavender/LightBlue
- -__**Phase-1 Documentation**__  - -
[Requirements Specification] lasts 2 days and is colored in Coral/Green and starts 0 days after [Project Management planning]'s end

- -**__Modeling and Design__** - -

[Use Case Diagram] lasts 1 day and is colored in Coral/Green and starts 0 days after [Requirements Specification]'s end
[User Stories] lasts 1 day and is colored in Coral/Green and starts 0 days after [Use Case Diagram]'s end
[Data Model] lasts 1 day and is colored in Coral/Green and starts 0 days after [User Stories]'s end
[Wireframes] lasts 1 day and is colored in Coral/Green and starts 0 days after [Data Model]'s end
- -**__Testing__** - -
[Test Plan] lasts 11 day and is colored in Coral/Green and starts 0 days after [User Stories]'s end
- -**__Evaluation__** - -
[Project evaluation] lasts 13 day and is colored in Coral/Green and starts 0 days after [Requirements Specification]'s end

- -**__Phase-2 App Implementation__** - -
[Development] lasts 10 days and is colored in yellow and starts 0 days after [Data Model]'s end

@endgantt

PlantUML version 1.2022.13(Sat Nov 19 18:22:17 PKT 2022)
(GPL source distribution)
Java Runtime: OpenJDK Runtime Environment
JVM: OpenJDK 64-Bit Server VM
Default Encoding: Cp1252
Language: en
Country: US
--></g></svg>